HIERARCHY
ROOT joint_Root
{
	OFFSET 0.0 0.0 0.0
	CHANNELS 6 Xposition Yposition Zposition Zrotation Xrotation Yrotation 
	JOINT Hips
	{
		OFFSET -17.1583 93.1646 452.98
		CHANNELS 6 Xposition Yposition Zposition Zrotation Xrotation Yrotation 
		JOINT Spine
		{
			OFFSET 15.7357 0.0 0.0
			CHANNELS 6 Xposition Yposition Zposition Zrotation Xrotation Yrotation 
			JOINT Chest
			{
				OFFSET 8.98455 -0.406207 0.0
				CHANNELS 6 Xposition Yposition Zposition Zrotation Xrotation Yrotation 
				JOINT Neck
				{
					OFFSET 16.3773 0.0 0.0
					CHANNELS 6 Xposition Yposition Zposition Zrotation Xrotation Yrotation 
					JOINT Head
					{
						OFFSET 6.45672 0.0 0.0
						CHANNELS 6 Xposition Yposition Zposition Zrotation Xrotation Yrotation 
						End Site
						{
							OFFSET 0.0 0.0 0.0
						}
					}
				}
				JOINT Shoulder_L
				{
					OFFSET 12.9942 -0.242716 4.98039
					CHANNELS 6 Xposition Yposition Zposition Zrotation Xrotation Yrotation 
					JOINT UpperArm_L
					{
						OFFSET 5.34809 0.0 0.0
						CHANNELS 6 Xposition Yposition Zposition Zrotation Xrotation Yrotation 
						JOINT LowerArm_L
						{
							OFFSET 24.3286 1.87007e-05 0.0
							CHANNELS 6 Xposition Yposition Zposition Zrotation Xrotation Yrotation 
							JOINT Hand_L
							{
								OFFSET 22.2916 0.0 0.0
								CHANNELS 6 Xposition Yposition Zposition Zrotation Xrotation Yrotation 
								End Site
								{
									OFFSET 0.0 0.0 0.0
								}
							}
						}
					}
				}
				JOINT Shoulder_R
				{
					OFFSET 12.9945 -0.242716 -4.98039
					CHANNELS 6 Xposition Yposition Zposition Zrotation Xrotation Yrotation 
					JOINT UpperArm_R
					{
						OFFSET -5.34813 0.0 0.0
						CHANNELS 6 Xposition Yposition Zposition Zrotation Xrotation Yrotation 
						JOINT LowerArm_R
						{
							OFFSET -24.3289 0.000322201 0.0
							CHANNELS 6 Xposition Yposition Zposition Zrotation Xrotation Yrotation 
							JOINT Hand_R
							{
								OFFSET -22.2915 -0.000108084 0.0
								CHANNELS 6 Xposition Yposition Zposition Zrotation Xrotation Yrotation 
								End Site
								{
									OFFSET 0.0 0.0 0.0
								}
							}
						}
					}
				}
			}
		}
		JOINT UpperLeg_L
		{
			OFFSET -2.19248 -6.46944 0.0
			CHANNELS 6 Xposition Yposition Zposition Zrotation Xrotation Yrotation 
			JOINT LowerLeg_L
			{
				OFFSET 39.0811 0.0 -1.23785e-05
				CHANNELS 6 Xposition Yposition Zposition Zrotation Xrotation Yrotation 
				JOINT Foot_L
				{
					OFFSET 40.9854 0.0 -1.26872e-05
					CHANNELS 6 Xposition Yposition Zposition Zrotation Xrotation Yrotation 
					JOINT Toes_L
					{
						OFFSET 11.7543 0.0 0.0
						CHANNELS 6 Xposition Yposition Zposition Zrotation Xrotation Yrotation 
						End Site
						{
							OFFSET 0.0 0.0 0.0
						}
					}
				}
			}
		}
		JOINT UpperLeg_R
		{
			OFFSET -2.19251 6.46944 0.0
			CHANNELS 6 Xposition Yposition Zposition Zrotation Xrotation Yrotation 
			JOINT LowerLeg_R
			{
				OFFSET -39.0811 -0.00228153 -0.0401928
				CHANNELS 6 Xposition Yposition Zposition Zrotation Xrotation Yrotation 
				JOINT Foot_R
				{
					OFFSET -40.9854 0.0 0.0
					CHANNELS 6 Xposition Yposition Zposition Zrotation Xrotation Yrotation 
					JOINT Toes_R
					{
						OFFSET -11.7543 0.0 0.0
						CHANNELS 6 Xposition Yposition Zposition Zrotation Xrotation Yrotation 
						End Site
						{
							OFFSET 0.0 0.0 0.0
						}
					}
				}
			}
		}
	}
}
MOTION
Frames:	4
Frame Time:	0.0333333
0.000000 0.000000 0.000000 0.000000 0.000000 -0.000000 -2.353300 92.729400 1.990080 87.080600 0.894448 -1.693540 15.735700 0.000005 -0.000001 96.140000 89.131700 -94.818400 8.984550 -0.406207 -0.000000 -6.038240 0.026385 2.647870 16.377300 -0.000001 -0.000001 4.395760 0.754589 -1.655170 6.456720 -0.000001 -0.000000 8.389020 -0.020210 3.392090 12.994200 -0.242716 4.980390 -92.359700 7.195230 -71.789000 5.348090 -0.000007 -0.000001 -75.699600 22.840500 3.090790 24.328600 0.000019 0.000005 15.346500 28.114600 -30.215700 22.291600 -0.000001 0.000005 -6.207290 5.062180 5.967730 12.994500 -0.242716 -4.980390 88.385500 5.360170 -73.210000 -5.348130 -0.000001 -0.000004 -71.717000 31.488200 -1.723790 -24.328900 0.000322 -0.000009 2.803170 8.796860 -17.759500 -22.291500 -0.000108 -0.000004 0.027311 5.221750 2.167970 -2.192480 -6.469440 -0.000000 -175.431000 1.720520 -3.748530 39.081100 -0.000007 -0.000012 0.144622 -0.411566 19.361400 40.985400 -0.000006 -0.000013 -1.027910 7.603200 -72.246200 11.754300 -0.000000 0.000003 -0.000159 0.170266 -9.670770 -2.192510 6.469440 -0.000001 -174.368000 8.178080 -178.171000 -39.081100 -0.002282 -0.040193 -0.002262 0.031461 10.093800 -40.985400 0.000008 0.000006 -2.713620 5.305930 -68.043600 -11.754300 -0.000006 -0.000006 -0.012091 0.286315 -4.936620
0.000000 0.000000 0.000000 0.000000 0.000000 -0.000000 -2.331590 92.731300 1.983330 87.067200 0.764305 -1.730170 15.735700 0.000005 -0.000001 95.393100 89.111000 -94.051500 8.984550 -0.406207 -0.000000 -5.994630 0.005862 2.686940 16.377300 -0.000001 -0.000001 4.269910 0.730378 -1.758150 6.456720 -0.000001 -0.000000 8.130840 -0.174760 3.100710 12.994200 -0.242716 4.980390 -92.408700 7.317150 -71.722800 5.348090 -0.000007 -0.000001 -75.304800 21.615500 3.157640 24.328600 0.000019 0.000005 15.729000 27.374900 -31.487700 22.291600 -0.000001 0.000005 -6.557610 5.045390 6.338710 12.994500 -0.242716 -4.980390 88.383800 5.365860 -73.210100 -5.348130 -0.000001 -0.000004 -71.690100 31.562800 -1.822400 -24.328900 0.000322 -0.000009 2.736580 8.568050 -17.794300 -22.291500 -0.000108 -0.000004 0.074440 5.221640 2.170910 -2.192480 -6.469440 -0.000000 -175.425000 1.704130 -3.769920 39.081100 -0.000007 -0.000012 0.140770 -0.400686 19.357700 40.985400 -0.000006 -0.000013 -1.133440 7.511730 -72.188700 11.754300 -0.000000 0.000003 -0.000067 0.168740 -9.732750 -2.192510 6.469440 -0.000001 -174.364000 8.054380 -178.211000 -39.081100 -0.002282 -0.040193 -0.002183 0.031018 10.093700 -40.985400 0.000008 0.000006 -2.693050 5.301530 -68.027300 -11.754300 -0.000006 -0.000006 -0.011614 0.282995 -5.072580
0.000000 0.000000 0.000000 0.000000 0.000000 -0.000000 -2.331390 92.732000 1.962730 87.012000 0.641785 -1.761900 15.735700 0.000005 -0.000001 95.225300 89.076200 -93.866800 8.984550 -0.406207 -0.000000 -5.924810 0.005827 2.720560 16.377300 -0.000001 -0.000001 4.124430 0.640757 -1.868580 6.456720 -0.000001 -0.000000 7.754870 -0.377248 2.731940 12.994200 -0.242716 4.980390 -92.460700 7.458310 -71.681900 5.348090 -0.000007 -0.000001 -74.703900 20.063000 3.355930 24.328600 0.000019 0.000005 16.572000 26.435200 -33.760400 22.291600 -0.000001 0.000005 -7.048270 5.042780 6.395720 12.994500 -0.242716 -4.980390 88.361700 5.418270 -73.148700 -5.348130 -0.000001 -0.000004 -71.665400 31.546200 -1.914730 -24.328900 0.000322 -0.000009 2.786370 8.694360 -17.853200 -22.291500 -0.000108 -0.000004 -0.151084 5.222780 2.141590 -2.192480 -6.469440 -0.000000 -175.384000 1.629940 -3.828560 39.081100 -0.000007 -0.000012 0.141840 -0.402300 19.421500 40.985400 -0.000006 -0.000013 -1.141150 7.465330 -72.232100 11.754300 -0.000000 0.000003 -0.000194 0.170824 -9.648110 -2.192510 6.469440 -0.000001 -174.296000 7.819000 -178.254000 -39.081100 -0.002282 -0.040193 -0.002185 0.031060 10.084000 -40.985400 0.000008 0.000006 -2.695890 5.184970 -68.024100 -11.754300 -0.000006 -0.000006 -0.012046 0.286009 -4.949130
0.000000 0.000000 0.000000 0.000000 0.000000 -0.000000 -2.332460 92.733900 1.930070 86.964500 0.507278 -1.827200 15.735700 0.000005 -0.000001 95.834500 89.039300 -94.464400 8.984550 -0.406207 -0.000000 -5.853590 0.032308 2.745040 16.377300 -0.000001 -0.000001 3.951230 0.482367 -1.961770 6.456720 -0.000001 -0.000000 7.263770 -0.709634 2.145630 12.994200 -0.242716 4.980390 -92.555900 7.626790 -71.410600 5.348090 -0.000007 -0.000001 -73.877400 18.284000 3.425680 24.328600 0.000019 0.000005 17.759100 25.228300 -36.922500 22.291600 -0.000001 0.000005 -7.575050 5.038510 6.489370 12.994500 -0.242716 -4.980390 88.345400 5.453790 -73.094900 -5.348130 -0.000001 -0.000004 -71.678700 31.572600 -1.946200 -24.328900 0.000322 -0.000009 2.760440 8.535640 -18.002900 -22.291500 -0.000108 -0.000004 -0.123523 5.221720 2.168670 -2.192480 -6.469440 -0.000000 -175.333000 1.638870 -3.948240 39.081100 -0.000007 -0.000012 0.140231 -0.395813 19.508700 40.985400 -0.000006 -0.000013 -1.302990 7.352120 -72.231800 11.754300 -0.000000 0.000003 -0.000135 0.169872 -9.686780 -2.192510 6.469440 -0.000001 -174.221000 7.576450 -178.334000 -39.081100 -0.002282 -0.040193 -0.002322 0.031901 10.062300 -40.985400 0.000008 0.000006 -2.677050 5.084350 -67.973100 -11.754300 -0.000006 -0.000006 -0.011879 0.284849 -4.996680
